<?xml version="1.0" standalone="no"?>
<!DOCTYPE svg PUBLIC "-//W3C//DTD SVG 20010904//EN"
 "http://www.w3.org/TR/2001/REC-SVG-20010904/DTD/svg10.dtd">
<svg version="1.0" xmlns="http://www.w3.org/2000/svg"
 width="512.000000pt" height="512.000000pt" viewBox="0 0 512.000000 512.000000"
 preserveAspectRatio="xMidYMid meet">
<metadata>
Created by potrace 1.14, written by Peter Selinger 2001-2017
</metadata>
<g transform="translate(0.000000,512.000000) scale(0.100000,-0.100000)"
fill="#000000" stroke="none">
<path d="M2487 5097 c-112 -68 -281 -317 -340 -502 -55 -172 -46 -341 28 -523
34 -84 118 -227 164 -280 71 -82 71 -82 71 -185 0 -54 -2 -97 -5 -97 -2 0 -47
31 -99 69 -52 37 -124 85 -159 106 -55 32 -67 44 -78 79 -17 52 -69 166 -109
235 -137 239 -347 379 -610 407 -210 23 -485 -19 -542 -83 -22 -25 -40 -72
-40 -108 0 -46 49 -190 99 -290 165 -331 401 -488 751 -499 95 -3 262 13 311
30 25 8 298 -183 424 -296 l57 -52 0 -103 0 -104 -76 35 c-80 38 -200 72 -262
75 -31 2 -56 16 -123 70 -108 88 -246 164 -362 201 -113 36 -264 46 -370 23
-133 -28 -290 -104 -420 -202 -201 -154 -231 -241 -124 -356 113 -120 297
-235 458 -287 233 -75 463 -37 705 116 36 23 142 103 168 126 11 10 28 15 40
13 12 -3 42 -9 67 -15 94 -20 201 -79 267 -148 l32 -35 0 -198 0 -198 -702 -3
c-771 -3 -719 1 -770 -63 -22 -29 -23 -37 -25 -247 -2 -234 5 -282 56 -378 37
-69 128 -152 203 -185 l66 -28 67 -266 c36 -146 68 -275 71 -286 26 -126 138
-550 154 -581 13 -25 36 -49 59 -62 l38 -22 931 0 c553 0 940 4 955 9 29 11
70 48 84 76 5 11 72 271 149 577 76 307 143 558 148 558 5 0 33 11 62 25 67
32 150 109 191 176 55 93 65 151 61 393 -3 199 -5 217 -24 243 -48 66 -17 63
-781 63 l-693 0 0 189 0 190 58 43 c104 80 276 168 326 168 7 0 44 -25 82 -55
133 -106 290 -186 434 -219 94 -21 265 -15 354 14 140 44 274 117 395 215 53
42 141 138 142 153 8 97 1 117 -59 180 -121 127 -304 238 -484 294 -105 33
-291 33 -398 -1 -133 -41 -297 -130 -395 -213 -11 -9 -30 -26 -43 -36 -12 -11
-63 -30 -112 -42 -51 -13 -137 -45 -195 -74 l-105 -52 0 117 0 116 88 75 c85
74 212 168 322 240 53 35 57 36 110 26 218 -37 393 -29 550 27 104 38 160 69
234 131 64 55 158 165 190 224 61 112 90 178 116 256 37 117 40 141 23 184
-29 72 -62 91 -225 125 -44 9 -147 17 -218 18 -210 1 -371 -47 -515 -156 -136
-102 -259 -282 -330 -483 -15 -42 -25 -55 -64 -77 -26 -14 -95 -60 -154 -101
-60 -42 -112 -78 -117 -81 -6 -4 -10 33 -10 92 l0 98 35 40 c97 109 205 305
241 435 25 90 25 290 0 380 -42 154 -156 347 -279 474 -60 61 -79 75 -112 79
-57 8 -71 6 -108 -16z"/>
</g>
</svg>
